<mxfile host="Electron" agent="Mozilla/5.0 (Windows NT 10.0; Win64; x64) AppleWebKit/537.36 (KHTML, like Gecko) draw.io/27.0.9 Chrome/134.0.6998.205 Electron/35.4.0 Safari/537.36" version="27.0.9">
  <diagram name="Page-1" id="-nPHpER0HVI-55NDrNUL">
    <mxGraphModel dx="1500" dy="674" grid="1" gridSize="10" guides="1" tooltips="1" connect="1" arrows="1" fold="1" page="1" pageScale="1" pageWidth="1200" pageHeight="1000" background="none" math="0" shadow="0">
      <root>
        <mxCell id="0" />
        <mxCell id="1" parent="0" />
        <mxCell id="70iYF0-_0Kj7Rx_-q3Ot-1" value="Countries&lt;span style=&quot;white-space: pre;&quot;&gt;&#x9;&lt;/span&gt;" style="swimlane;fontStyle=0;childLayout=stackLayout;horizontal=1;startSize=30;horizontalStack=0;resizeParent=1;resizeParentMax=0;resizeLast=0;collapsible=1;marginBottom=0;whiteSpace=wrap;html=1;" parent="1" vertex="1">
          <mxGeometry x="890" y="300" width="170" height="120" as="geometry" />
        </mxCell>
        <mxCell id="70iYF0-_0Kj7Rx_-q3Ot-2" value="country_id | VARCHAR" style="text;strokeColor=none;fillColor=none;align=left;verticalAlign=middle;spacingLeft=4;spacingRight=4;overflow=hidden;points=[[0,0.5],[1,0.5]];portConstraint=eastwest;rotatable=0;whiteSpace=wrap;html=1;" parent="70iYF0-_0Kj7Rx_-q3Ot-1" vertex="1">
          <mxGeometry y="30" width="170" height="30" as="geometry" />
        </mxCell>
        <mxCell id="70iYF0-_0Kj7Rx_-q3Ot-3" value="country_name | VARCHAR" style="text;strokeColor=none;fillColor=none;align=left;verticalAlign=middle;spacingLeft=4;spacingRight=4;overflow=hidden;points=[[0,0.5],[1,0.5]];portConstraint=eastwest;rotatable=0;whiteSpace=wrap;html=1;" parent="70iYF0-_0Kj7Rx_-q3Ot-1" vertex="1">
          <mxGeometry y="60" width="170" height="30" as="geometry" />
        </mxCell>
        <mxCell id="70iYF0-_0Kj7Rx_-q3Ot-4" value="region_id | INT" style="text;strokeColor=none;fillColor=none;align=left;verticalAlign=middle;spacingLeft=4;spacingRight=4;overflow=hidden;points=[[0,0.5],[1,0.5]];portConstraint=eastwest;rotatable=0;whiteSpace=wrap;html=1;" parent="70iYF0-_0Kj7Rx_-q3Ot-1" vertex="1">
          <mxGeometry y="90" width="170" height="30" as="geometry" />
        </mxCell>
        <mxCell id="70iYF0-_0Kj7Rx_-q3Ot-5" value="Departments" style="swimlane;fontStyle=0;childLayout=stackLayout;horizontal=1;startSize=30;horizontalStack=0;resizeParent=1;resizeParentMax=0;resizeLast=0;collapsible=1;marginBottom=0;whiteSpace=wrap;html=1;" parent="1" vertex="1">
          <mxGeometry x="330" y="110" width="200" height="150" as="geometry" />
        </mxCell>
        <mxCell id="70iYF0-_0Kj7Rx_-q3Ot-6" value="department_id | INT" style="text;strokeColor=none;fillColor=none;align=left;verticalAlign=middle;spacingLeft=4;spacingRight=4;overflow=hidden;points=[[0,0.5],[1,0.5]];portConstraint=eastwest;rotatable=0;whiteSpace=wrap;html=1;" parent="70iYF0-_0Kj7Rx_-q3Ot-5" vertex="1">
          <mxGeometry y="30" width="200" height="30" as="geometry" />
        </mxCell>
        <mxCell id="70iYF0-_0Kj7Rx_-q3Ot-7" value="department_name | VARCHAR" style="text;strokeColor=none;fillColor=none;align=left;verticalAlign=middle;spacingLeft=4;spacingRight=4;overflow=hidden;points=[[0,0.5],[1,0.5]];portConstraint=eastwest;rotatable=0;whiteSpace=wrap;html=1;" parent="70iYF0-_0Kj7Rx_-q3Ot-5" vertex="1">
          <mxGeometry y="60" width="200" height="30" as="geometry" />
        </mxCell>
        <mxCell id="70iYF0-_0Kj7Rx_-q3Ot-8" value="manager_id | INT" style="text;strokeColor=none;fillColor=none;align=left;verticalAlign=middle;spacingLeft=4;spacingRight=4;overflow=hidden;points=[[0,0.5],[1,0.5]];portConstraint=eastwest;rotatable=0;whiteSpace=wrap;html=1;" parent="70iYF0-_0Kj7Rx_-q3Ot-5" vertex="1">
          <mxGeometry y="90" width="200" height="30" as="geometry" />
        </mxCell>
        <mxCell id="70iYF0-_0Kj7Rx_-q3Ot-10" value="location_id | INT" style="text;strokeColor=none;fillColor=none;align=left;verticalAlign=middle;spacingLeft=4;spacingRight=4;overflow=hidden;points=[[0,0.5],[1,0.5]];portConstraint=eastwest;rotatable=0;whiteSpace=wrap;html=1;" parent="70iYF0-_0Kj7Rx_-q3Ot-5" vertex="1">
          <mxGeometry y="120" width="200" height="30" as="geometry" />
        </mxCell>
        <mxCell id="70iYF0-_0Kj7Rx_-q3Ot-11" value="Employees" style="swimlane;fontStyle=0;childLayout=stackLayout;horizontal=1;startSize=30;horizontalStack=0;resizeParent=1;resizeParentMax=0;resizeLast=0;collapsible=1;marginBottom=0;whiteSpace=wrap;html=1;" parent="1" vertex="1">
          <mxGeometry x="50" y="250" width="190" height="360" as="geometry" />
        </mxCell>
        <mxCell id="70iYF0-_0Kj7Rx_-q3Ot-12" value="employee_id | INT" style="text;strokeColor=none;fillColor=none;align=left;verticalAlign=middle;spacingLeft=4;spacingRight=4;overflow=hidden;points=[[0,0.5],[1,0.5]];portConstraint=eastwest;rotatable=0;whiteSpace=wrap;html=1;" parent="70iYF0-_0Kj7Rx_-q3Ot-11" vertex="1">
          <mxGeometry y="30" width="190" height="30" as="geometry" />
        </mxCell>
        <mxCell id="70iYF0-_0Kj7Rx_-q3Ot-13" value="first_name | VARCHAR" style="text;strokeColor=none;fillColor=none;align=left;verticalAlign=middle;spacingLeft=4;spacingRight=4;overflow=hidden;points=[[0,0.5],[1,0.5]];portConstraint=eastwest;rotatable=0;whiteSpace=wrap;html=1;" parent="70iYF0-_0Kj7Rx_-q3Ot-11" vertex="1">
          <mxGeometry y="60" width="190" height="30" as="geometry" />
        </mxCell>
        <mxCell id="70iYF0-_0Kj7Rx_-q3Ot-14" value="last_name | VARCHAR" style="text;strokeColor=none;fillColor=none;align=left;verticalAlign=middle;spacingLeft=4;spacingRight=4;overflow=hidden;points=[[0,0.5],[1,0.5]];portConstraint=eastwest;rotatable=0;whiteSpace=wrap;html=1;" parent="70iYF0-_0Kj7Rx_-q3Ot-11" vertex="1">
          <mxGeometry y="90" width="190" height="30" as="geometry" />
        </mxCell>
        <mxCell id="70iYF0-_0Kj7Rx_-q3Ot-15" value="email | VARCHAR" style="text;strokeColor=none;fillColor=none;align=left;verticalAlign=middle;spacingLeft=4;spacingRight=4;overflow=hidden;points=[[0,0.5],[1,0.5]];portConstraint=eastwest;rotatable=0;whiteSpace=wrap;html=1;" parent="70iYF0-_0Kj7Rx_-q3Ot-11" vertex="1">
          <mxGeometry y="120" width="190" height="30" as="geometry" />
        </mxCell>
        <mxCell id="70iYF0-_0Kj7Rx_-q3Ot-16" value="phone_number | VARCHAR" style="text;strokeColor=none;fillColor=none;align=left;verticalAlign=middle;spacingLeft=4;spacingRight=4;overflow=hidden;points=[[0,0.5],[1,0.5]];portConstraint=eastwest;rotatable=0;whiteSpace=wrap;html=1;" parent="70iYF0-_0Kj7Rx_-q3Ot-11" vertex="1">
          <mxGeometry y="150" width="190" height="30" as="geometry" />
        </mxCell>
        <mxCell id="70iYF0-_0Kj7Rx_-q3Ot-17" value="hire_date | DATETIME" style="text;strokeColor=none;fillColor=none;align=left;verticalAlign=middle;spacingLeft=4;spacingRight=4;overflow=hidden;points=[[0,0.5],[1,0.5]];portConstraint=eastwest;rotatable=0;whiteSpace=wrap;html=1;" parent="70iYF0-_0Kj7Rx_-q3Ot-11" vertex="1">
          <mxGeometry y="180" width="190" height="30" as="geometry" />
        </mxCell>
        <mxCell id="70iYF0-_0Kj7Rx_-q3Ot-18" value="job_id | VARCHAR" style="text;strokeColor=none;fillColor=none;align=left;verticalAlign=middle;spacingLeft=4;spacingRight=4;overflow=hidden;points=[[0,0.5],[1,0.5]];portConstraint=eastwest;rotatable=0;whiteSpace=wrap;html=1;" parent="70iYF0-_0Kj7Rx_-q3Ot-11" vertex="1">
          <mxGeometry y="210" width="190" height="30" as="geometry" />
        </mxCell>
        <mxCell id="70iYF0-_0Kj7Rx_-q3Ot-19" value="salary | FLOAT" style="text;strokeColor=none;fillColor=none;align=left;verticalAlign=middle;spacingLeft=4;spacingRight=4;overflow=hidden;points=[[0,0.5],[1,0.5]];portConstraint=eastwest;rotatable=0;whiteSpace=wrap;html=1;" parent="70iYF0-_0Kj7Rx_-q3Ot-11" vertex="1">
          <mxGeometry y="240" width="190" height="30" as="geometry" />
        </mxCell>
        <mxCell id="70iYF0-_0Kj7Rx_-q3Ot-20" value="commision_pct | FLOAT" style="text;strokeColor=none;fillColor=none;align=left;verticalAlign=middle;spacingLeft=4;spacingRight=4;overflow=hidden;points=[[0,0.5],[1,0.5]];portConstraint=eastwest;rotatable=0;whiteSpace=wrap;html=1;" parent="70iYF0-_0Kj7Rx_-q3Ot-11" vertex="1">
          <mxGeometry y="270" width="190" height="30" as="geometry" />
        </mxCell>
        <mxCell id="sF4iZRrnZswfermoC5bC-14" style="edgeStyle=orthogonalEdgeStyle;rounded=0;orthogonalLoop=1;jettySize=auto;html=1;exitX=0;exitY=0.5;exitDx=0;exitDy=0;entryX=0;entryY=0.5;entryDx=0;entryDy=0;" edge="1" parent="70iYF0-_0Kj7Rx_-q3Ot-11" source="70iYF0-_0Kj7Rx_-q3Ot-21" target="70iYF0-_0Kj7Rx_-q3Ot-12">
          <mxGeometry relative="1" as="geometry" />
        </mxCell>
        <mxCell id="70iYF0-_0Kj7Rx_-q3Ot-21" value="manager_id | INT" style="text;strokeColor=none;fillColor=none;align=left;verticalAlign=middle;spacingLeft=4;spacingRight=4;overflow=hidden;points=[[0,0.5],[1,0.5]];portConstraint=eastwest;rotatable=0;whiteSpace=wrap;html=1;" parent="70iYF0-_0Kj7Rx_-q3Ot-11" vertex="1">
          <mxGeometry y="300" width="190" height="30" as="geometry" />
        </mxCell>
        <mxCell id="YLza1ynKhImxOaq_eKSm-1" value="department_id | INT" style="text;strokeColor=none;fillColor=none;align=left;verticalAlign=middle;spacingLeft=4;spacingRight=4;overflow=hidden;points=[[0,0.5],[1,0.5]];portConstraint=eastwest;rotatable=0;whiteSpace=wrap;html=1;" parent="70iYF0-_0Kj7Rx_-q3Ot-11" vertex="1">
          <mxGeometry y="330" width="190" height="30" as="geometry" />
        </mxCell>
        <mxCell id="YLza1ynKhImxOaq_eKSm-2" value="job_history" style="swimlane;fontStyle=0;childLayout=stackLayout;horizontal=1;startSize=30;horizontalStack=0;resizeParent=1;resizeParentMax=0;resizeLast=0;collapsible=1;marginBottom=0;whiteSpace=wrap;html=1;" parent="1" vertex="1">
          <mxGeometry x="330" y="350" width="170" height="180" as="geometry" />
        </mxCell>
        <mxCell id="YLza1ynKhImxOaq_eKSm-3" value="employee_id | INT" style="text;strokeColor=none;fillColor=none;align=left;verticalAlign=middle;spacingLeft=4;spacingRight=4;overflow=hidden;points=[[0,0.5],[1,0.5]];portConstraint=eastwest;rotatable=0;whiteSpace=wrap;html=1;" parent="YLza1ynKhImxOaq_eKSm-2" vertex="1">
          <mxGeometry y="30" width="170" height="30" as="geometry" />
        </mxCell>
        <mxCell id="YLza1ynKhImxOaq_eKSm-4" value="start_date | DATETIME" style="text;strokeColor=none;fillColor=none;align=left;verticalAlign=middle;spacingLeft=4;spacingRight=4;overflow=hidden;points=[[0,0.5],[1,0.5]];portConstraint=eastwest;rotatable=0;whiteSpace=wrap;html=1;" parent="YLza1ynKhImxOaq_eKSm-2" vertex="1">
          <mxGeometry y="60" width="170" height="30" as="geometry" />
        </mxCell>
        <mxCell id="YLza1ynKhImxOaq_eKSm-5" value="end_date | DATETIME" style="text;strokeColor=none;fillColor=none;align=left;verticalAlign=middle;spacingLeft=4;spacingRight=4;overflow=hidden;points=[[0,0.5],[1,0.5]];portConstraint=eastwest;rotatable=0;whiteSpace=wrap;html=1;" parent="YLza1ynKhImxOaq_eKSm-2" vertex="1">
          <mxGeometry y="90" width="170" height="30" as="geometry" />
        </mxCell>
        <mxCell id="YLza1ynKhImxOaq_eKSm-6" value="job_id | VARCHAR" style="text;strokeColor=none;fillColor=none;align=left;verticalAlign=middle;spacingLeft=4;spacingRight=4;overflow=hidden;points=[[0,0.5],[1,0.5]];portConstraint=eastwest;rotatable=0;whiteSpace=wrap;html=1;" parent="YLza1ynKhImxOaq_eKSm-2" vertex="1">
          <mxGeometry y="120" width="170" height="30" as="geometry" />
        </mxCell>
        <mxCell id="YLza1ynKhImxOaq_eKSm-7" value="department_id | INT" style="text;strokeColor=none;fillColor=none;align=left;verticalAlign=middle;spacingLeft=4;spacingRight=4;overflow=hidden;points=[[0,0.5],[1,0.5]];portConstraint=eastwest;rotatable=0;whiteSpace=wrap;html=1;" parent="YLza1ynKhImxOaq_eKSm-2" vertex="1">
          <mxGeometry y="150" width="170" height="30" as="geometry" />
        </mxCell>
        <mxCell id="YLza1ynKhImxOaq_eKSm-8" value="Jobs" style="swimlane;fontStyle=0;childLayout=stackLayout;horizontal=1;startSize=30;horizontalStack=0;resizeParent=1;resizeParentMax=0;resizeLast=0;collapsible=1;marginBottom=0;whiteSpace=wrap;html=1;" parent="1" vertex="1">
          <mxGeometry x="580" y="590" width="140" height="150" as="geometry" />
        </mxCell>
        <mxCell id="YLza1ynKhImxOaq_eKSm-9" value="job_id | VARCHAR" style="text;strokeColor=none;fillColor=none;align=left;verticalAlign=middle;spacingLeft=4;spacingRight=4;overflow=hidden;points=[[0,0.5],[1,0.5]];portConstraint=eastwest;rotatable=0;whiteSpace=wrap;html=1;" parent="YLza1ynKhImxOaq_eKSm-8" vertex="1">
          <mxGeometry y="30" width="140" height="30" as="geometry" />
        </mxCell>
        <mxCell id="YLza1ynKhImxOaq_eKSm-10" value="job_title | VARCHAR" style="text;strokeColor=none;fillColor=none;align=left;verticalAlign=middle;spacingLeft=4;spacingRight=4;overflow=hidden;points=[[0,0.5],[1,0.5]];portConstraint=eastwest;rotatable=0;whiteSpace=wrap;html=1;" parent="YLza1ynKhImxOaq_eKSm-8" vertex="1">
          <mxGeometry y="60" width="140" height="30" as="geometry" />
        </mxCell>
        <mxCell id="YLza1ynKhImxOaq_eKSm-11" value="min_salary | INT" style="text;strokeColor=none;fillColor=none;align=left;verticalAlign=middle;spacingLeft=4;spacingRight=4;overflow=hidden;points=[[0,0.5],[1,0.5]];portConstraint=eastwest;rotatable=0;whiteSpace=wrap;html=1;" parent="YLza1ynKhImxOaq_eKSm-8" vertex="1">
          <mxGeometry y="90" width="140" height="30" as="geometry" />
        </mxCell>
        <mxCell id="YLza1ynKhImxOaq_eKSm-12" value="max_salary | INT" style="text;strokeColor=none;fillColor=none;align=left;verticalAlign=middle;spacingLeft=4;spacingRight=4;overflow=hidden;points=[[0,0.5],[1,0.5]];portConstraint=eastwest;rotatable=0;whiteSpace=wrap;html=1;" parent="YLza1ynKhImxOaq_eKSm-8" vertex="1">
          <mxGeometry y="120" width="140" height="30" as="geometry" />
        </mxCell>
        <mxCell id="YLza1ynKhImxOaq_eKSm-13" value="Locations" style="swimlane;fontStyle=0;childLayout=stackLayout;horizontal=1;startSize=30;horizontalStack=0;resizeParent=1;resizeParentMax=0;resizeLast=0;collapsible=1;marginBottom=0;whiteSpace=wrap;html=1;" parent="1" vertex="1">
          <mxGeometry x="630" y="340" width="190" height="210" as="geometry" />
        </mxCell>
        <mxCell id="YLza1ynKhImxOaq_eKSm-14" value="location_id | INT" style="text;strokeColor=none;fillColor=none;align=left;verticalAlign=middle;spacingLeft=4;spacingRight=4;overflow=hidden;points=[[0,0.5],[1,0.5]];portConstraint=eastwest;rotatable=0;whiteSpace=wrap;html=1;" parent="YLza1ynKhImxOaq_eKSm-13" vertex="1">
          <mxGeometry y="30" width="190" height="30" as="geometry" />
        </mxCell>
        <mxCell id="YLza1ynKhImxOaq_eKSm-15" value="street_address | VARCHAR" style="text;strokeColor=none;fillColor=none;align=left;verticalAlign=middle;spacingLeft=4;spacingRight=4;overflow=hidden;points=[[0,0.5],[1,0.5]];portConstraint=eastwest;rotatable=0;whiteSpace=wrap;html=1;" parent="YLza1ynKhImxOaq_eKSm-13" vertex="1">
          <mxGeometry y="60" width="190" height="30" as="geometry" />
        </mxCell>
        <mxCell id="YLza1ynKhImxOaq_eKSm-16" value="postal_code | | VARCHAR" style="text;strokeColor=none;fillColor=none;align=left;verticalAlign=middle;spacingLeft=4;spacingRight=4;overflow=hidden;points=[[0,0.5],[1,0.5]];portConstraint=eastwest;rotatable=0;whiteSpace=wrap;html=1;" parent="YLza1ynKhImxOaq_eKSm-13" vertex="1">
          <mxGeometry y="90" width="190" height="30" as="geometry" />
        </mxCell>
        <mxCell id="YLza1ynKhImxOaq_eKSm-17" value="city | VARCHAR" style="text;strokeColor=none;fillColor=none;align=left;verticalAlign=middle;spacingLeft=4;spacingRight=4;overflow=hidden;points=[[0,0.5],[1,0.5]];portConstraint=eastwest;rotatable=0;whiteSpace=wrap;html=1;" parent="YLza1ynKhImxOaq_eKSm-13" vertex="1">
          <mxGeometry y="120" width="190" height="30" as="geometry" />
        </mxCell>
        <mxCell id="YLza1ynKhImxOaq_eKSm-18" value="street_province | VARCHAR" style="text;strokeColor=none;fillColor=none;align=left;verticalAlign=middle;spacingLeft=4;spacingRight=4;overflow=hidden;points=[[0,0.5],[1,0.5]];portConstraint=eastwest;rotatable=0;whiteSpace=wrap;html=1;" parent="YLza1ynKhImxOaq_eKSm-13" vertex="1">
          <mxGeometry y="150" width="190" height="30" as="geometry" />
        </mxCell>
        <mxCell id="YLza1ynKhImxOaq_eKSm-19" value="country_id | VARCHAR" style="text;strokeColor=none;fillColor=none;align=left;verticalAlign=middle;spacingLeft=4;spacingRight=4;overflow=hidden;points=[[0,0.5],[1,0.5]];portConstraint=eastwest;rotatable=0;whiteSpace=wrap;html=1;" parent="YLza1ynKhImxOaq_eKSm-13" vertex="1">
          <mxGeometry y="180" width="190" height="30" as="geometry" />
        </mxCell>
        <mxCell id="YLza1ynKhImxOaq_eKSm-20" value="regions" style="swimlane;fontStyle=0;childLayout=stackLayout;horizontal=1;startSize=30;horizontalStack=0;resizeParent=1;resizeParentMax=0;resizeLast=0;collapsible=1;marginBottom=0;whiteSpace=wrap;html=1;" parent="1" vertex="1">
          <mxGeometry x="900" y="500" width="170" height="90" as="geometry" />
        </mxCell>
        <mxCell id="YLza1ynKhImxOaq_eKSm-21" value="region_id | INT&amp;nbsp;" style="text;strokeColor=none;fillColor=none;align=left;verticalAlign=middle;spacingLeft=4;spacingRight=4;overflow=hidden;points=[[0,0.5],[1,0.5]];portConstraint=eastwest;rotatable=0;whiteSpace=wrap;html=1;" parent="YLza1ynKhImxOaq_eKSm-20" vertex="1">
          <mxGeometry y="30" width="170" height="30" as="geometry" />
        </mxCell>
        <mxCell id="YLza1ynKhImxOaq_eKSm-23" value="region_name | VARCHAR" style="text;strokeColor=none;fillColor=none;align=left;verticalAlign=middle;spacingLeft=4;spacingRight=4;overflow=hidden;points=[[0,0.5],[1,0.5]];portConstraint=eastwest;rotatable=0;whiteSpace=wrap;html=1;" parent="YLza1ynKhImxOaq_eKSm-20" vertex="1">
          <mxGeometry y="60" width="170" height="30" as="geometry" />
        </mxCell>
        <mxCell id="sF4iZRrnZswfermoC5bC-6" value="" style="edgeStyle=entityRelationEdgeStyle;fontSize=12;html=1;endArrow=ERmandOne;startArrow=ERmandOne;rounded=0;" edge="1" parent="1" source="YLza1ynKhImxOaq_eKSm-1" target="70iYF0-_0Kj7Rx_-q3Ot-6">
          <mxGeometry width="100" height="100" relative="1" as="geometry">
            <mxPoint x="670" y="270" as="sourcePoint" />
            <mxPoint x="770" y="170" as="targetPoint" />
            <Array as="points">
              <mxPoint x="170" y="320" />
            </Array>
          </mxGeometry>
        </mxCell>
        <mxCell id="sF4iZRrnZswfermoC5bC-8" value="" style="edgeStyle=entityRelationEdgeStyle;fontSize=12;html=1;endArrow=ERoneToMany;rounded=0;" edge="1" parent="1" source="70iYF0-_0Kj7Rx_-q3Ot-12" target="YLza1ynKhImxOaq_eKSm-3">
          <mxGeometry width="100" height="100" relative="1" as="geometry">
            <mxPoint x="290" y="320" as="sourcePoint" />
            <mxPoint x="390" y="220" as="targetPoint" />
            <Array as="points">
              <mxPoint x="510" y="50" />
              <mxPoint x="350" y="350" />
            </Array>
          </mxGeometry>
        </mxCell>
        <mxCell id="sF4iZRrnZswfermoC5bC-9" value="" style="edgeStyle=entityRelationEdgeStyle;fontSize=12;html=1;endArrow=ERoneToMany;rounded=0;" edge="1" parent="1" source="YLza1ynKhImxOaq_eKSm-6" target="YLza1ynKhImxOaq_eKSm-9">
          <mxGeometry width="100" height="100" relative="1" as="geometry">
            <mxPoint x="320" y="565" as="sourcePoint" />
            <mxPoint x="440" y="655" as="targetPoint" />
            <Array as="points">
              <mxPoint x="590" y="320" />
              <mxPoint x="430" y="620" />
            </Array>
          </mxGeometry>
        </mxCell>
        <mxCell id="sF4iZRrnZswfermoC5bC-10" value="" style="edgeStyle=entityRelationEdgeStyle;fontSize=12;html=1;endArrow=ERmandOne;startArrow=ERmandOne;rounded=0;" edge="1" parent="1" source="YLza1ynKhImxOaq_eKSm-19" target="70iYF0-_0Kj7Rx_-q3Ot-2">
          <mxGeometry width="100" height="100" relative="1" as="geometry">
            <mxPoint x="820" y="630" as="sourcePoint" />
            <mxPoint x="920" y="530" as="targetPoint" />
          </mxGeometry>
        </mxCell>
        <mxCell id="sF4iZRrnZswfermoC5bC-11" value="" style="edgeStyle=entityRelationEdgeStyle;fontSize=12;html=1;endArrow=ERmandOne;startArrow=ERmandOne;rounded=0;" edge="1" parent="1" source="YLza1ynKhImxOaq_eKSm-21" target="70iYF0-_0Kj7Rx_-q3Ot-4">
          <mxGeometry width="100" height="100" relative="1" as="geometry">
            <mxPoint x="840" y="590" as="sourcePoint" />
            <mxPoint x="940" y="490" as="targetPoint" />
          </mxGeometry>
        </mxCell>
        <mxCell id="sF4iZRrnZswfermoC5bC-12" value="" style="edgeStyle=entityRelationEdgeStyle;fontSize=12;html=1;endArrow=ERmandOne;startArrow=ERmandOne;rounded=0;" edge="1" parent="1" source="70iYF0-_0Kj7Rx_-q3Ot-10" target="YLza1ynKhImxOaq_eKSm-14">
          <mxGeometry width="100" height="100" relative="1" as="geometry">
            <mxPoint x="900" y="280" as="sourcePoint" />
            <mxPoint x="1000" y="180" as="targetPoint" />
          </mxGeometry>
        </mxCell>
        <mxCell id="sF4iZRrnZswfermoC5bC-13" value="" style="edgeStyle=entityRelationEdgeStyle;fontSize=12;html=1;endArrow=ERoneToMany;rounded=0;" edge="1" parent="1" source="70iYF0-_0Kj7Rx_-q3Ot-6" target="YLza1ynKhImxOaq_eKSm-7">
          <mxGeometry width="100" height="100" relative="1" as="geometry">
            <mxPoint x="730" y="420" as="sourcePoint" />
            <mxPoint x="830" y="320" as="targetPoint" />
            <Array as="points">
              <mxPoint x="950" y="150" />
            </Array>
          </mxGeometry>
        </mxCell>
      </root>
    </mxGraphModel>
  </diagram>
</mxfile>
